<svg xmlns="http://www.w3.org/2000/svg" viewBox="0 0 40 40" fill="none">
  <!-- Elegant dark circle background for light/dark theme browser tabs compatibility -->
  <circle cx="20" cy="20" r="18" fill="#121212"/>
  <!-- Gold curtain logo -->
  <path d="M8 11C8 11 13 17 17 17C21 17 21 11 21 11C21 11 21 17 25 17C29 17 34 11 34 11V29C34 29 29 26 25 26C21 26 21 29 21 29C21 29 21 26 17 26C13 26 8 29 8 29V11Z" stroke="#C5A880" stroke-width="1.8" stroke-linecap="round" stroke-linejoin="round"/>
  <path d="M21 8V31" stroke="#C5A880" stroke-width="1" stroke-dasharray="2 2" />
  <circle cx="21" cy="8" r="1.5" fill="#C5A880"/>
</svg>
